<svg id="Layer_1" enable-background="new 0 0 512 512" viewBox="0 0 512 512" xmlns="http://www.w3.org/2000/svg"><g><g><g><path d="m160 298.667h192c5.888 0 10.667-4.779 10.667-10.667v-21.333c0-5.888-4.779-10.667-10.667-10.667h-192c-5.888 0-10.667 4.779-10.667 10.667v21.333c0 5.888 4.779 10.667 10.667 10.667z"/><path d="m277.333 330.667v42.667c0 5.888 4.779 10.667 10.667 10.667h106.667c5.888 0 10.667-4.779 10.667-10.667v-42.667c0-5.888-4.779-10.667-10.667-10.667h-106.667c-5.888 0-10.667 4.779-10.667 10.667z"/><path d="m224 234.667h64c5.888 0 10.667-4.779 10.667-10.667v-53.333c0-15.872-8.811-29.589-21.717-36.928l-10.326-123.968c-.448-5.526-5.077-9.771-10.624-9.771s-10.176 4.245-10.624 9.771l-10.325 123.968c-12.907 7.339-21.717 21.056-21.717 36.928v53.333c-.001 5.888 4.778 10.667 10.666 10.667z"/><path d="m224 405.333h-128c-5.888 0-10.667 4.779-10.667 10.667v85.333c0 5.888 4.779 10.667 10.667 10.667h128c5.888 0 10.667-4.779 10.667-10.667v-85.333c0-5.888-4.779-10.667-10.667-10.667z"/><path d="m224 320h-106.667c-5.888 0-10.667 4.779-10.667 10.667v42.667c0 5.888 4.779 10.667 10.667 10.667h106.667c5.888 0 10.667-4.779 10.667-10.667v-42.667c0-5.888-4.779-10.667-10.667-10.667z"/><path d="m416 405.333h-128c-5.888 0-10.667 4.779-10.667 10.667v85.333c0 5.888 4.779 10.667 10.667 10.667h128c5.888 0 10.667-4.779 10.667-10.667v-85.333c0-5.888-4.779-10.667-10.667-10.667z"/></g></g></g><g/><g/><g/><g/><g/><g/><g/><g/><g/><g/><g/><g/><g/><g/><g/></svg>