<svg height="480pt" viewBox="0 0 480 480" width="480pt" xmlns="http://www.w3.org/2000/svg"><path d="m136 408h224v64h-224zm0 0" fill="#428dc5"/><path d="m200 184h96v32h-96zm0 0" fill="#428dc5"/><path d="m408 104c0-17.601562-14.398438-32-32-32s-32 14.398438-32 32c-8.800781 0-16 7.199219-16 16v16h96v-16c0-8.800781-7.199219-16-16-16zm0 0" fill="#b8eaee"/><path d="m264 480h-32c-4.800781 0-8-3.199219-8-8v-112c0-4.800781 3.199219-8 8-8h32c4.800781 0 8 3.199219 8 8v112c0 4.800781-3.199219 8-8 8zm-24-16h16v-96h-16zm0 0"/><path d="m456 136c0-17.601562-14.398438-32-32-32s-32 14.398438-32 32c-8.800781 0-16 7.199219-16 16v16h96v-16c0-8.800781-7.199219-16-16-16zm0 0" fill="#c0f5f9"/><path d="m136 184c0-17.601562-14.398438-32-32-32s-32 14.398438-32 32c-8.800781 0-16 7.199219-16 16v16h96v-16c0-8.800781-7.199219-16-16-16zm0 0" fill="#c0f5f9"/><path d="m248 40-5.601562 24c-1.597657 5.601562-3.199219 11.199219-4.796876 16l-5.601562 16h32l-5.601562-16c-1.597657-5.601562-3.199219-10.398438-4.796876-16zm0 0" fill="#3775a4"/><path d="m184 216h128v192h-128zm0 0" fill="#4799cf"/><path d="m168 392h64v80h-64zm0 0" fill="#4faae6"/><path d="m160 408h8v64h-8zm0 0" fill="#3e84b9"/><path d="m328 408h8v64h-8zm0 0" fill="#3e84b9"/><path d="m264 392h64v80h-64zm0 0" fill="#4faae6"/><path d="m224 184v-52h48v52h-8v292h-32v-292zm0 0" fill="#3775a4"/><path d="m248 88c-4.800781 0-8-3.199219-8-8v-72c0-4.800781 3.199219-8 8-8s8 3.199219 8 8v72c0 4.800781-3.199219 8-8 8zm0 0" fill="#3775a4"/><path d="m264 136h-32v-40l8-8 16-2.398438 8 10.398438zm0 0" fill="#3775a4"/><g fill="#428dc5"><path d="m192 416h16v16h-16zm0 0"/><path d="m192 448h16v24h-16zm0 0"/><path d="m288 416h16v16h-16zm0 0"/><path d="m288 448h16v24h-16zm0 0"/></g><path d="m408 376h64v96h-64zm0 0" fill="#d9d9d9"/><path d="m432 400h16v16h-16zm0 0" fill="#c3c3c3"/><path d="m432 432h16v16h-16zm0 0" fill="#c3c3c3"/><path d="m56 344h48v128h-48zm0 0" fill="#cdcdcd"/><path d="m8 280h48v192h-48zm0 0" fill="#c3c3c3"/><path d="m80 312-24 32h48zm0 0" fill="#c3c3c3"/><path d="m56 280-24-32-24 32zm0 0" fill="#b2b2b2"/><path d="m184 383.199219h48v8.800781h-48zm0 0" fill="#428dc5"/><path d="m264 383.199219h48v8.800781h-48zm0 0" fill="#428dc5"/><path d="m200 206.398438h32v9.601562h-32zm0 0" fill="#3f87bd"/><path d="m264 206.398438h32v9.601562h-32zm0 0" fill="#3f87bd"/><path d="m49.601562 344h6.398438v128h-6.398438zm0 0" fill="#b2b2b2"/><path d="m472 480h-464c-4.800781 0-8-3.199219-8-8s3.199219-8 8-8h464c4.800781 0 8 3.199219 8 8s-3.199219 8-8 8zm0 0" fill="#aeaeae"/><path d="m232 448h32v16h-32zm0 0" fill="#336d99"/><path d="m232 123.199219h32v8.800781h-32zm0 0" fill="#336d99"/></svg>