<svg id="Capa_1" enable-background="new 0 0 512 512" height="512" viewBox="0 0 512 512" width="512" xmlns="http://www.w3.org/2000/svg"><path d="m406 482h-45v-75c0-8.284-6.716-15-15-15h-15c0-9.472 0-190.644 0-196 0-8.284-6.716-15-15-15h-9.793l-12.911-77.466c-1.207-7.232-7.505-12.534-14.796-12.534h-7.5v-76c0-8.284-6.716-15-15-15s-15 6.716-15 15v76h-7.5c-7.094 0-13.566 5.165-14.796 12.534l-12.911 77.466h-9.793c-8.284 0-15 6.716-15 15v196h-15c-8.284 0-15 6.716-15 15v75h-45c-8.284 0-15 6.716-15 15s6.716 15 15 15h300c8.284 0 15-6.716 15-15s-6.716-15-15-15zm-135-60v60h-30v-60zm30 0h30v60h-30zm-30-30v-121h30v121zm-60-181h7.459c.02 0 .039.002.059.002.018 0 .036-.002.054-.002h22.428v30h-30zm60 0h22.428c.018 0 .036.002.054.002.02 0 .039-.002.059-.002h7.459v30h-30zm-24.793-90h19.586l10 60h-39.586zm-35.207 150h30v121h-30zm-30 151h30v60h-30z"/></svg>